<svg xmlns="http://www.w3.org/2000/svg" xmlns:xlink="http://www.w3.org/1999/xlink" version="1.1" x="0px" y="0px" viewBox="0 0 46.5 58.125" style="enable-background:new 0 0 46.5 46.5;" xml:space="preserve"><title>Asset 51</title><g><g><path d="M23.2,46.5C10.4,46.5,0,36.1,0,23.2S10.4,0,23.2,0s23.2,10.4,23.2,23.2C46.5,36.1,36.1,46.5,23.2,46.5z M23.2,4    C12.6,4,4,12.6,4,23.2s8.6,19.2,19.2,19.2s19.2-8.6,19.2-19.2C42.5,12.6,33.9,4,23.2,4z M25.2,12h-4v14.8h4V12z M25.2,30.4h-4v4.1    h4V30.4z"/></g></g><text x="0" y="61.5" fill="#000000" font-size="5px" font-weight="bold" font-family="'Helvetica Neue', Helvetica, Arial-Unicode, Arial, Sans-serif">Created by Joshua McDonald</text><text x="0" y="66.5" fill="#000000" font-size="5px" font-weight="bold" font-family="'Helvetica Neue', Helvetica, Arial-Unicode, Arial, Sans-serif">from the Noun Project</text></svg>