<svg xmlns="http://www.w3.org/2000/svg" xmlns:xlink="http://www.w3.org/1999/xlink" version="1.1" x="0px" y="0px" viewBox="0 0 100 125" enable-background="new 0 0 100 100" xml:space="preserve"><g><path fill="none" d="M68.047,10.128H31.953c-2.68,0-4.861,2.181-4.861,4.861v70.023c0,1.294,0.507,2.514,1.429,3.434   c0.919,0.919,2.137,1.426,3.428,1.426h36.098c2.68,0,4.861-2.181,4.861-4.861V14.989C72.908,12.309,70.727,10.128,68.047,10.128z    M40.34,11.963h19.318c1.045,0,1.895,0.849,1.895,1.893s-0.85,1.894-1.895,1.894H40.34c-1.044,0-1.893-0.85-1.893-1.894   S39.296,11.963,40.34,11.963z M50,89.165c-2.098,0-3.805-1.706-3.805-3.804s1.707-3.804,3.805-3.804   c2.097,0,3.804,1.706,3.804,3.804S52.098,89.165,50,89.165z M70.211,80.861H29.789V17.692h40.422V80.861z"/><circle fill="none" cx="50" cy="85.361" r="2.588"/><path fill="none" d="M40.34,14.533h19.318c0.375,0,0.678-0.304,0.678-0.678c0-0.373-0.303-0.677-0.678-0.677H40.34   c-0.373,0-0.676,0.304-0.676,0.677C39.665,14.229,39.967,14.533,40.34,14.533z"/><path d="M40.34,15.749h19.318c1.045,0,1.895-0.85,1.895-1.894s-0.85-1.893-1.895-1.893H40.34c-1.044,0-1.893,0.849-1.893,1.893   S39.296,15.749,40.34,15.749z M40.34,13.179h19.318c0.375,0,0.678,0.304,0.678,0.677c0,0.374-0.303,0.678-0.678,0.678H40.34   c-0.373,0-0.676-0.304-0.676-0.678C39.665,13.482,39.967,13.179,40.34,13.179z"/><path d="M68.047,8.912H31.953c-3.351,0-6.077,2.726-6.077,6.077v70.023c0,1.619,0.634,3.145,1.785,4.295   c1.15,1.148,2.673,1.78,4.288,1.78v-0.216c0.001,0,0.001,0,0.002,0l0.001,0.216h36.094c3.352,0,6.078-2.727,6.078-6.077V14.989   C74.125,11.638,71.398,8.912,68.047,8.912z M72.908,85.011c0,2.681-2.182,4.861-4.861,4.861H31.949   c-1.291,0-2.508-0.507-3.428-1.426c-0.922-0.92-1.429-2.14-1.429-3.434V14.989c0-2.681,2.181-4.861,4.861-4.861h36.094   c2.68,0,4.861,2.181,4.861,4.861V85.011z"/><rect x="29.789" y="17.692" width="40.422" height="63.169"/><path d="M50,81.558c-2.098,0-3.805,1.706-3.805,3.804s1.707,3.804,3.805,3.804c2.097,0,3.804-1.706,3.804-3.804   S52.098,81.558,50,81.558z M50,87.949c-1.428,0-2.588-1.161-2.588-2.588s1.16-2.588,2.588-2.588c1.427,0,2.587,1.161,2.587,2.588   S51.428,87.949,50,87.949z"/></g><text x="0" y="115" fill="#000000" font-size="5px" font-weight="bold" font-family="'Helvetica Neue', Helvetica, Arial-Unicode, Arial, Sans-serif">Created by Ker'is</text><text x="0" y="120" fill="#000000" font-size="5px" font-weight="bold" font-family="'Helvetica Neue', Helvetica, Arial-Unicode, Arial, Sans-serif">from the Noun Project</text></svg>